<svg width="14" height="17" viewBox="0 0 14 17" fill="none" xmlns="http://www.w3.org/2000/svg">
<path d="M12.178 11.008C12.5939 10.735 12.9354 10.3628 13.1718 9.92503C13.4081 9.48723 13.5318 8.99752 13.5318 8.5C13.5318 8.00248 13.4081 7.51278 13.1718 7.07497C12.9354 6.63716 12.5939 6.265 12.178 5.992L4.646 1.049C4.19358 0.752092 3.66928 0.583086 3.12863 0.559885C2.58798 0.536684 2.05112 0.660151 1.57493 0.91721C1.09873 1.17427 0.700935 1.55534 0.423677 2.02007C0.14642 2.48479 2.47955e-05 3.01586 2.86102e-06 3.557V13.443C2.47955e-05 13.9841 0.14642 14.5152 0.423677 14.9799C0.700935 15.4447 1.09873 15.8257 1.57493 16.0828C2.05112 16.3399 2.58798 16.4633 3.12863 16.4401C3.66928 16.4169 4.19358 16.2479 4.646 15.951L12.178 11.008Z" fill="#0E87F8"/>
</svg>
