<svg width="18" height="18" viewBox="0 0 18 18" fill="none" xmlns="http://www.w3.org/2000/svg">
<path d="M12.3333 17.9583H5.66668C1.81668 17.9583 1.10002 16.1666 0.916683 14.425L0.291683 7.74996C0.200017 6.87496 0.175017 5.58329 1.04168 4.61663C1.79168 3.78329 3.03335 3.38329 4.83335 3.38329H13.1667C14.975 3.38329 16.2167 3.79163 16.9583 4.61663C17.825 5.58329 17.8 6.87496 17.7083 7.75829L17.0833 14.4166C16.9 16.1666 16.1833 17.9583 12.3333 17.9583ZM4.83335 4.62496C3.42502 4.62496 2.45835 4.89996 1.96668 5.44996C1.55835 5.89996 1.42502 6.59163 1.53335 7.62496L2.15835 14.3C2.30002 15.6166 2.65835 16.7083 5.66668 16.7083H12.3333C15.3333 16.7083 15.7 15.6166 15.8417 14.2916L16.4667 7.63329C16.575 6.59163 16.4417 5.89996 16.0333 5.44996C15.5417 4.89996 14.575 4.62496 13.1667 4.62496H4.83335Z" fill="#5D6679"/>
<path d="M12.3333 4.62496C11.9917 4.62496 11.7083 4.34163 11.7083 3.99996V3.33329C11.7083 1.84996 11.7083 1.29163 9.66668 1.29163H8.33335C6.29168 1.29163 6.29168 1.84996 6.29168 3.33329V3.99996C6.29168 4.34163 6.00835 4.62496 5.66668 4.62496C5.32502 4.62496 5.04168 4.34163 5.04168 3.99996V3.33329C5.04168 1.86663 5.04168 0.041626 8.33335 0.041626H9.66668C12.9583 0.041626 12.9583 1.86663 12.9583 3.33329V3.99996C12.9583 4.34163 12.675 4.62496 12.3333 4.62496Z" fill="#5D6679"/>
<path d="M9.00002 12.9583C6.70835 12.9583 6.70835 11.5416 6.70835 10.6916V9.83329C6.70835 8.65829 6.99168 8.37496 8.16668 8.37496H9.83335C11.0083 8.37496 11.2917 8.65829 11.2917 9.83329V10.6666C11.2917 11.5333 11.2917 12.9583 9.00002 12.9583ZM7.95835 9.62496C7.95835 9.69163 7.95835 9.76663 7.95835 9.83329V10.6916C7.95835 11.55 7.95835 11.7083 9.00002 11.7083C10.0417 11.7083 10.0417 11.575 10.0417 10.6833V9.83329C10.0417 9.76663 10.0417 9.69163 10.0417 9.62496C9.97502 9.62496 9.90001 9.62496 9.83335 9.62496H8.16668C8.10002 9.62496 8.02502 9.62496 7.95835 9.62496Z" fill="#5D6679"/>
<path d="M10.6667 11.3083C10.3583 11.3083 10.0833 11.075 10.05 10.7583C10.0083 10.4166 10.25 10.1 10.5917 10.0583C12.7917 9.78329 14.9 8.94996 16.675 7.65829C16.95 7.44996 17.3417 7.51663 17.55 7.79996C17.75 8.07496 17.6917 8.46663 17.4083 8.67496C15.4583 10.0916 13.1583 11 10.7417 11.3083C10.7167 11.3083 10.6917 11.3083 10.6667 11.3083Z" fill="#5D6679"/>
<path d="M7.33335 11.3166C7.30835 11.3166 7.28335 11.3166 7.25835 11.3166C4.97502 11.0583 2.75002 10.225 0.825017 8.90829C0.541683 8.71663 0.466683 8.32496 0.65835 8.04163C0.850017 7.75829 1.24168 7.68329 1.52502 7.87496C3.28335 9.07496 5.30835 9.83329 7.39168 10.075C7.73335 10.1166 7.98335 10.425 7.94168 10.7666C7.91668 11.0833 7.65002 11.3166 7.33335 11.3166Z" fill="#5D6679"/>
</svg>
