<svg width="50" height="50" viewBox="0 0 50 50" fill="none" xmlns="http://www.w3.org/2000/svg">
<path d="M25 16.6666C20.4083 16.6666 16.6666 20.4083 16.6666 25C16.6666 29.5916 20.4083 33.3333 25 33.3333C29.5916 33.3333 33.3333 29.5916 33.3333 25C33.3333 20.4083 29.5916 16.6666 25 16.6666ZM27.8 26.9166C28.0416 27.1583 28.0416 27.5583 27.8 27.8C27.675 27.925 27.5166 27.9833 27.3583 27.9833C27.2 27.9833 27.0416 27.925 26.9166 27.8L25 25.8833L23.0833 27.8C22.9583 27.925 22.8 27.9833 22.6416 27.9833C22.4833 27.9833 22.325 27.925 22.2 27.8C21.9583 27.5583 21.9583 27.1583 22.2 26.9166L24.1166 25L22.2 23.0833C21.9583 22.8416 21.9583 22.4416 22.2 22.2C22.4416 21.9583 22.8416 21.9583 23.0833 22.2L25 24.1166L26.9166 22.2C27.1583 21.9583 27.5583 21.9583 27.8 22.2C28.0416 22.4416 28.0416 22.8416 27.8 23.0833L25.8833 25L27.8 26.9166Z" fill="#7E92A2"/>
</svg>
