<svg width="30" height="30" viewBox="0 0 30 30" fill="none" xmlns="http://www.w3.org/2000/svg">
<g opacity="0.5">
<rect width="30" height="30" rx="4" fill="#FF3C3C"/>
<path d="M7.46866 17.3938C8.39852 16.3621 9.54212 15.5455 10.8995 14.944C12.2568 14.3425 13.7201 14.001 15.2894 13.9196C16.8586 13.8381 18.3494 14.0262 19.7617 14.4839C21.1741 14.9416 22.3961 15.6354 23.4278 16.5653C23.5763 16.6992 23.6555 16.8603 23.6653 17.0486C23.6751 17.2369 23.613 17.4053 23.4791 17.5539L21.6715 19.5595C21.5673 19.6751 21.4351 19.7429 21.2749 19.763C21.1147 19.7831 20.9735 19.7531 20.8513 19.6729L18.8279 18.4326C18.681 18.3301 18.5733 18.2256 18.5048 18.119C18.4364 18.0124 18.3989 17.8963 18.3923 17.7708L18.2614 15.4764C17.8073 15.3662 17.3355 15.2963 16.8462 15.2666C16.3569 15.237 15.8574 15.2393 15.3479 15.2736C14.8614 15.2989 14.3823 15.3533 13.9107 15.4368C13.4391 15.5202 12.9711 15.637 12.5069 15.787L12.6217 17.9996C12.6291 18.1408 12.5974 18.288 12.5267 18.4412C12.4559 18.5943 12.3602 18.7212 12.2396 18.8219L10.3531 20.2179C10.216 20.3037 10.0706 20.3447 9.91696 20.3409C9.76334 20.3371 9.63289 20.2868 9.52559 20.1901L7.51999 18.3825C7.37143 18.2486 7.29226 18.0875 7.28248 17.8991C7.2727 17.7108 7.33476 17.5424 7.46866 17.3938ZM19.6263 15.854L19.707 17.4075L21.0604 18.2459L22.0535 17.1441C21.6779 16.8804 21.2916 16.6369 20.8945 16.4136C20.4974 16.1903 20.0747 16.0038 19.6263 15.854ZM11.1995 16.2915C10.7691 16.4869 10.362 16.7145 9.9782 16.9744C9.59439 17.2343 9.23761 17.5223 8.90786 17.8384L9.99732 18.8203L11.2814 17.8685L11.1995 16.2915Z" fill="white"/>
</g>
</svg>
