<svg width="80" height="80" viewBox="0 0 80 80" fill="none" xmlns="http://www.w3.org/2000/svg">
<rect width="80" height="80" rx="40" fill="url(#paint0_linear_573_3984)"/>
<path d="M52.7499 32.5342C52.7216 32.5342 52.6791 32.5342 52.6366 32.5342C45.1424 31.7833 37.6624 31.5 30.2533 32.2508L27.3633 32.5342C26.7683 32.5908 26.2441 32.1658 26.1874 31.5708C26.1308 30.9758 26.5558 30.4658 27.1366 30.4092L30.0266 30.1258C37.5633 29.3608 45.1991 29.6583 52.8491 30.4092C53.4299 30.4658 53.8549 30.99 53.7983 31.5708C53.7558 32.1233 53.2883 32.5342 52.7499 32.5342Z" fill="white"/>
<path d="M35.0416 31.1034C34.9849 31.1034 34.9282 31.1034 34.8574 31.0892C34.2907 30.99 33.8941 30.4375 33.9932 29.8709L34.3049 28.015C34.5316 26.655 34.8432 24.7709 38.1441 24.7709H41.8557C45.1707 24.7709 45.4824 26.7259 45.6949 28.0292L46.0066 29.8709C46.1057 30.4517 45.7091 31.0042 45.1424 31.0892C44.5616 31.1884 44.0091 30.7917 43.9241 30.225L43.6124 28.3834C43.4141 27.1509 43.3716 26.91 41.8699 26.91H38.1582C36.6566 26.91 36.6282 27.1084 36.4157 28.3692L36.0899 30.2109C36.0049 30.735 35.5516 31.1034 35.0416 31.1034Z" fill="white"/>
<path d="M44.5474 55.2292H35.4524C30.5082 55.2292 30.3099 52.495 30.1541 50.285L29.2332 36.0192C29.1907 35.4383 29.6441 34.9283 30.2249 34.8858C30.8199 34.8575 31.3157 35.2967 31.3582 35.8775L32.2791 50.1433C32.4349 52.2967 32.4916 53.1042 35.4524 53.1042H44.5474C47.5224 53.1042 47.5791 52.2967 47.7207 50.1433L48.6416 35.8775C48.6841 35.2967 49.1941 34.8575 49.7749 34.8858C50.3557 34.9283 50.8091 35.4242 50.7666 36.0192L49.8457 50.285C49.6899 52.495 49.4916 55.2292 44.5474 55.2292Z" fill="white"/>
<path d="M42.3518 47.4375H37.6343C37.0534 47.4375 36.5718 46.9558 36.5718 46.375C36.5718 45.7942 37.0534 45.3125 37.6343 45.3125H42.3518C42.9326 45.3125 43.4143 45.7942 43.4143 46.375C43.4143 46.9558 42.9326 47.4375 42.3518 47.4375Z" fill="white"/>
<path d="M43.5416 41.7709H36.4583C35.8774 41.7709 35.3958 41.2892 35.3958 40.7084C35.3958 40.1275 35.8774 39.6459 36.4583 39.6459H43.5416C44.1224 39.6459 44.6041 40.1275 44.6041 40.7084C44.6041 41.2892 44.1224 41.7709 43.5416 41.7709Z" fill="white"/>
<defs>
<linearGradient id="paint0_linear_573_3984" x1="40" y1="0" x2="40" y2="80" gradientUnits="userSpaceOnUse">
<stop stop-color="#1366D9" stop-opacity="0.75"/>
<stop offset="1" stop-color="white"/>
</linearGradient>
</defs>
</svg>
