<svg width="20" height="20" viewBox="0 0 20 20" fill="none" xmlns="http://www.w3.org/2000/svg">
<rect x="0.5" y="0.5" width="19" height="19" rx="9.5" fill="white"/>
<rect x="0.5" y="0.5" width="19" height="19" rx="9.5" stroke="#EAEEF4"/>
<path d="M7.38859 12.6367C7.13113 12.6367 6.89056 12.5481 6.71751 12.3835C6.49804 12.1767 6.39252 11.8644 6.43051 11.5267L6.58667 10.1592C6.61621 9.90176 6.77238 9.55989 6.95386 9.37418L10.419 5.70644C11.2842 4.79056 12.1875 4.76524 13.1033 5.63047C14.0192 6.4957 14.0445 7.39892 13.1793 8.3148L9.71416 11.9825C9.5369 12.1725 9.20769 12.3497 8.95023 12.3919L7.59118 12.6241C7.51943 12.6283 7.45612 12.6367 7.38859 12.6367ZM11.7738 5.62625C11.4488 5.62625 11.1661 5.82884 10.8791 6.13273L7.41391 9.80468C7.3295 9.89332 7.23243 10.1043 7.21554 10.2267L7.05938 11.5942C7.0425 11.7335 7.07626 11.8475 7.15223 11.9192C7.22821 11.991 7.34216 12.0163 7.48144 11.9952L8.84049 11.7631C8.96289 11.742 9.16548 11.6322 9.24989 11.5436L12.715 7.87585C13.2384 7.31873 13.4283 6.80381 12.6644 6.0863C12.3267 5.76131 12.0355 5.62625 11.7738 5.62625Z" fill="#7E92A2"/>
<path d="M12.3689 9.01964C12.3605 9.01964 12.3478 9.01964 12.3394 9.01964C11.0226 8.8888 9.96318 7.88851 9.76059 6.58011C9.73527 6.40707 9.85344 6.24668 10.0265 6.21714C10.1995 6.19182 10.3599 6.30999 10.3895 6.48304C10.5499 7.50443 11.3771 8.28947 12.4069 8.39077C12.58 8.40765 12.7066 8.56382 12.6897 8.73686C12.6686 8.89725 12.5293 9.01964 12.3689 9.01964Z" fill="#7E92A2"/>
<path d="M13.9137 14H6.31655C6.1435 14 6 13.8565 6 13.6835C6 13.5104 6.1435 13.3669 6.31655 13.3669H13.9137C14.0867 13.3669 14.2302 13.5104 14.2302 13.6835C14.2302 13.8565 14.0867 14 13.9137 14Z" fill="#7E92A2"/>
</svg>
