<svg width="20" height="20" viewBox="0 0 20 20" fill="none" xmlns="http://www.w3.org/2000/svg">
<rect x="0.5" y="0.5" width="19" height="19" rx="9.5" fill="white"/>
<rect x="0.5" y="0.5" width="19" height="19" rx="9.5" stroke="#EAEEF4"/>
<path d="M13.814 7.28345C13.8057 7.28345 13.7932 7.28345 13.7807 7.28345C11.5765 7.06261 9.37649 6.97928 7.19732 7.20011L6.34732 7.28345C6.17232 7.30011 6.01816 7.17511 6.00149 7.00011C5.98482 6.82511 6.10982 6.67511 6.28066 6.65845L7.13066 6.57511C9.34732 6.35011 11.5932 6.43761 13.8432 6.65845C14.014 6.67511 14.139 6.82928 14.1223 7.00011C14.1098 7.16261 13.9723 7.28345 13.814 7.28345Z" fill="#7E92A2"/>
<path d="M8.60566 6.8625C8.58899 6.8625 8.57232 6.8625 8.55149 6.85833C8.38482 6.82917 8.26816 6.66667 8.29732 6.5L8.38899 5.95417C8.45566 5.55417 8.54732 5 9.51816 5H10.6098C11.5848 5 11.6765 5.575 11.739 5.95833L11.8307 6.5C11.8598 6.67083 11.7432 6.83333 11.5765 6.85833C11.4057 6.8875 11.2432 6.77083 11.2182 6.60417L11.1265 6.0625C11.0682 5.7 11.0557 5.62917 10.614 5.62917H9.52232C9.08066 5.62917 9.07232 5.6875 9.00982 6.05833L8.91399 6.6C8.88899 6.75417 8.75566 6.8625 8.60566 6.8625Z" fill="#7E92A2"/>
<path d="M11.4015 13.9583H8.72646C7.2723 13.9583 7.21396 13.1542 7.16813 12.5042L6.8973 8.30832C6.8848 8.13749 7.01813 7.98749 7.18896 7.97499C7.36396 7.96666 7.5098 8.09582 7.5223 8.26666L7.79313 12.4625C7.83896 13.0958 7.85563 13.3333 8.72646 13.3333H11.4015C12.2765 13.3333 12.2931 13.0958 12.3348 12.4625L12.6056 8.26666C12.6181 8.09582 12.7681 7.96666 12.939 7.97499C13.1098 7.98749 13.2431 8.13332 13.2306 8.30832L12.9598 12.5042C12.914 13.1542 12.8556 13.9583 11.4015 13.9583Z" fill="#7E92A2"/>
<path d="M10.7556 11.6667H9.3681C9.19727 11.6667 9.0556 11.5251 9.0556 11.3542C9.0556 11.1834 9.19727 11.0417 9.3681 11.0417H10.7556C10.9264 11.0417 11.0681 11.1834 11.0681 11.3542C11.0681 11.5251 10.9264 11.6667 10.7556 11.6667Z" fill="#7E92A2"/>
<path d="M11.1056 10H9.02228C8.85144 10 8.70978 9.85833 8.70978 9.6875C8.70978 9.51667 8.85144 9.375 9.02228 9.375H11.1056C11.2764 9.375 11.4181 9.51667 11.4181 9.6875C11.4181 9.85833 11.2764 10 11.1056 10Z" fill="#7E92A2"/>
</svg>
