<svg width="10" height="10" viewBox="0 0 10 10" fill="none" xmlns="http://www.w3.org/2000/svg">
<path d="M8.75003 2.8042C8.74169 2.8042 8.72919 2.8042 8.71669 2.8042C6.51253 2.58336 4.31253 2.50003 2.13336 2.72086L1.28336 2.8042C1.10836 2.82086 0.954193 2.69586 0.937526 2.52086C0.920859 2.34586 1.04586 2.19586 1.21669 2.1792L2.06669 2.09586C4.28336 1.87086 6.52919 1.95836 8.77919 2.1792C8.95003 2.19586 9.07503 2.35003 9.05836 2.52086C9.04586 2.68336 8.90836 2.8042 8.75003 2.8042Z" fill="#7E92A2"/>
<path d="M3.54169 2.3835C3.52502 2.3835 3.50836 2.3835 3.48752 2.37933C3.32086 2.35016 3.20419 2.18766 3.23336 2.021L3.32502 1.47516C3.39169 1.07516 3.48336 0.520996 4.45419 0.520996H5.54586C6.52086 0.520996 6.61252 1.096 6.67502 1.47933L6.76669 2.021C6.79586 2.19183 6.67919 2.35433 6.51252 2.37933C6.34169 2.4085 6.17919 2.29183 6.15419 2.12516L6.06252 1.5835C6.00419 1.221 5.99169 1.15016 5.55002 1.15016H4.45836C4.01669 1.15016 4.00836 1.2085 3.94586 1.57933L3.85002 2.121C3.82502 2.27516 3.69169 2.3835 3.54169 2.3835Z" fill="#7E92A2"/>
<path d="M6.3375 9.47932H3.6625C2.20833 9.47932 2.15 8.67515 2.10417 8.02515L1.83333 3.82932C1.82083 3.65849 1.95417 3.50849 2.125 3.49599C2.3 3.48765 2.44583 3.61682 2.45833 3.78765L2.72917 7.98349C2.775 8.61682 2.79167 8.85432 3.6625 8.85432H6.3375C7.2125 8.85432 7.22917 8.61682 7.27083 7.98349L7.54167 3.78765C7.55417 3.61682 7.70416 3.48765 7.875 3.49599C8.04583 3.50849 8.17917 3.65432 8.16667 3.82932L7.89583 8.02515C7.85 8.67515 7.79167 9.47932 6.3375 9.47932Z" fill="#7E92A2"/>
<path d="M5.6917 7.1875H4.3042C4.13337 7.1875 3.9917 7.04583 3.9917 6.875C3.9917 6.70417 4.13337 6.5625 4.3042 6.5625H5.6917C5.86253 6.5625 6.0042 6.70417 6.0042 6.875C6.0042 7.04583 5.86253 7.1875 5.6917 7.1875Z" fill="#7E92A2"/>
<path d="M6.04171 5.521H3.95837C3.78754 5.521 3.64587 5.37933 3.64587 5.2085C3.64587 5.03766 3.78754 4.896 3.95837 4.896H6.04171C6.21254 4.896 6.35421 5.03766 6.35421 5.2085C6.35421 5.37933 6.21254 5.521 6.04171 5.521Z" fill="#7E92A2"/>
</svg>
