<svg width="17" height="18" viewBox="0 0 17 18" fill="none" xmlns="http://www.w3.org/2000/svg">
<path d="M2.74167 15.0782C2.23333 15.0782 1.75833 14.9032 1.41667 14.5782C0.983333 14.1698 0.775 13.5531 0.85 12.8865L1.15833 10.1865C1.21667 9.67815 1.525 9.00315 1.88333 8.63648L8.725 1.39482C10.4333 -0.413517 12.2167 -0.463517 14.025 1.24482C15.8333 2.95315 15.8833 4.73648 14.175 6.54482L7.33333 13.7865C6.98333 14.1615 6.33333 14.5115 5.825 14.5948L3.14167 15.0532C3 15.0615 2.875 15.0782 2.74167 15.0782ZM11.4 1.23648C10.7583 1.23648 10.2 1.63648 9.63333 2.23648L2.79167 9.48648C2.625 9.66148 2.43333 10.0782 2.4 10.3198L2.09167 13.0198C2.05833 13.2948 2.125 13.5198 2.275 13.6615C2.425 13.8032 2.65 13.8532 2.925 13.8115L5.60833 13.3532C5.85 13.3115 6.25 13.0948 6.41667 12.9198L13.2583 5.67815C14.2917 4.57815 14.6667 3.56148 13.1583 2.14482C12.4917 1.50315 11.9167 1.23648 11.4 1.23648Z" fill="#7E92A2"/>
<path d="M12.575 7.93648C12.5583 7.93648 12.5333 7.93648 12.5167 7.93648C9.91667 7.67815 7.825 5.70315 7.425 3.11982C7.375 2.77815 7.60833 2.46148 7.95 2.40315C8.29167 2.35315 8.60833 2.58648 8.66667 2.92815C8.98333 4.94482 10.6167 6.49482 12.65 6.69482C12.9917 6.72815 13.2417 7.03648 13.2083 7.37815C13.1667 7.69482 12.8917 7.93648 12.575 7.93648Z" fill="#7E92A2"/>
<path d="M15.625 17.7698H0.625C0.283333 17.7698 0 17.4865 0 17.1448C0 16.8032 0.283333 16.5198 0.625 16.5198H15.625C15.9667 16.5198 16.25 16.8032 16.25 17.1448C16.25 17.4865 15.9667 17.7698 15.625 17.7698Z" fill="#7E92A2"/>
</svg>
