<svg width="18" height="18" viewBox="0 0 18 18" fill="none" xmlns="http://www.w3.org/2000/svg">
<path d="M7.10256 11.4601C6.96006 11.4601 6.81756 11.4076 6.70506 11.2951C6.09006 10.6801 5.75256 9.86256 5.75256 9.00006C5.75256 7.20756 7.20756 5.75256 9.00006 5.75256C9.86256 5.75256 10.6801 6.09006 11.2951 6.70506C11.4001 6.81006 11.4601 6.95256 11.4601 7.10256C11.4601 7.25256 11.4001 7.39506 11.2951 7.50006L7.50006 11.2951C7.38756 11.4076 7.24506 11.4601 7.10256 11.4601ZM9.00006 6.87756C7.83006 6.87756 6.87756 7.83006 6.87756 9.00006C6.87756 9.37506 6.97506 9.73506 7.15506 10.0501L10.0501 7.15506C9.73506 6.97506 9.37506 6.87756 9.00006 6.87756Z" fill="#959595"/>
<path d="M4.2 13.8826C4.0725 13.8826 3.9375 13.8376 3.8325 13.7476C3.03 13.0651 2.31 12.2251 1.695 11.2501C0.900005 10.0126 0.900005 7.99508 1.695 6.75008C3.525 3.88508 6.1875 2.23508 9 2.23508C10.65 2.23508 12.2775 2.80508 13.7025 3.87758C13.95 4.06508 14.0025 4.41758 13.815 4.66508C13.6275 4.91258 13.275 4.96508 13.0275 4.77758C11.7975 3.84758 10.4025 3.36008 9 3.36008C6.5775 3.36008 4.26 4.81508 2.64 7.35758C2.0775 8.23508 2.0775 9.76508 2.64 10.6426C3.2025 11.5201 3.8475 12.2776 4.56 12.8926C4.7925 13.0951 4.8225 13.4476 4.62 13.6876C4.515 13.8151 4.3575 13.8826 4.2 13.8826Z" fill="#959595"/>
<path d="M9.00005 15.7649C8.00255 15.7649 7.02755 15.5624 6.09005 15.1649C5.80505 15.0449 5.67005 14.7149 5.79005 14.4299C5.91005 14.1449 6.24005 14.0099 6.52505 14.1299C7.32005 14.4674 8.15255 14.6399 8.99255 14.6399C11.415 14.6399 13.7325 13.1849 15.3525 10.6424C15.915 9.76491 15.915 8.23491 15.3525 7.35741C15.12 6.98991 14.865 6.63741 14.595 6.30741C14.4 6.06741 14.4375 5.71491 14.6775 5.51241C14.9175 5.31741 15.27 5.34741 15.4725 5.59491C15.765 5.95491 16.05 6.34491 16.305 6.74991C17.1 7.98741 17.1 10.0049 16.305 11.2499C14.475 14.1149 11.8125 15.7649 9.00005 15.7649Z" fill="#959595"/>
<path d="M9.51756 12.2024C9.25506 12.2024 9.01506 12.0149 8.96256 11.7449C8.90256 11.4374 9.10506 11.1449 9.41256 11.0924C10.2376 10.9424 10.9276 10.2524 11.0776 9.42742C11.1376 9.11992 11.4301 8.92492 11.7376 8.97742C12.0451 9.03742 12.2476 9.32992 12.1876 9.63742C11.9476 10.9349 10.9126 11.9624 9.62256 12.2024C9.58506 12.1949 9.55506 12.2024 9.51756 12.2024Z" fill="#959595"/>
<path d="M1.49996 17.0627C1.35746 17.0627 1.21496 17.0102 1.10246 16.8977C0.884956 16.6802 0.884956 16.3202 1.10246 16.1027L6.70495 10.5002C6.92245 10.2827 7.28246 10.2827 7.49996 10.5002C7.71746 10.7177 7.71746 11.0777 7.49996 11.2952L1.89746 16.8977C1.78496 17.0102 1.64246 17.0627 1.49996 17.0627Z" fill="#959595"/>
<path d="M10.8977 7.6649C10.7552 7.6649 10.6127 7.6124 10.5002 7.4999C10.2827 7.2824 10.2827 6.9224 10.5002 6.7049L16.1027 1.1024C16.3202 0.884895 16.6802 0.884895 16.8977 1.1024C17.1152 1.3199 17.1152 1.6799 16.8977 1.8974L11.2952 7.4999C11.1827 7.6124 11.0402 7.6649 10.8977 7.6649Z" fill="#959595"/>
</svg>
