<svg width="18" height="18" viewBox="0 0 18 18" fill="none" xmlns="http://www.w3.org/2000/svg">
<path d="M12.6598 15.1885C11.2198 15.1885 9.86229 14.4235 9.12729 13.186C8.73729 12.556 8.53479 11.821 8.53479 11.0635C8.53479 8.79098 10.3873 6.93848 12.6598 6.93848C14.9323 6.93848 16.7848 8.79098 16.7848 11.0635C16.7848 11.821 16.5748 12.556 16.1848 13.1935C15.4573 14.4235 14.1073 15.1885 12.6598 15.1885ZM12.6598 8.06348C11.0023 8.06348 9.65979 9.40598 9.65979 11.0635C9.65979 11.611 9.80979 12.1435 10.0948 12.601C10.6348 13.5085 11.6173 14.0635 12.6598 14.0635C13.7248 14.0635 14.6848 13.5235 15.2248 12.6085C15.5098 12.1435 15.6598 11.611 15.6598 11.0635C15.6598 9.40598 14.3173 8.06348 12.6598 8.06348Z" fill="#7E92A2"/>
<path d="M13.9949 11.6099H11.3324C11.0249 11.6099 10.7699 11.3549 10.7699 11.0474C10.7699 10.7399 11.0249 10.4849 11.3324 10.4849H13.9949C14.3024 10.4849 14.5574 10.7399 14.5574 11.0474C14.5574 11.3549 14.3024 11.6099 13.9949 11.6099Z" fill="#7E92A2"/>
<path d="M12.66 12.9685C12.3525 12.9685 12.0975 12.7135 12.0975 12.406V9.75098C12.0975 9.44348 12.3525 9.18848 12.66 9.18848C12.9675 9.18848 13.2225 9.44348 13.2225 9.75098V12.4135C13.2225 12.721 12.975 12.9685 12.66 12.9685Z" fill="#7E92A2"/>
<path d="M8.19723 17.0615C7.83723 17.0615 7.47723 16.9715 7.15473 16.7915C6.48723 16.4165 6.08973 15.7415 6.08973 14.984V10.9715C6.08973 10.5965 5.84223 10.0265 5.60223 9.73401L2.75223 6.74151C2.27973 6.25401 1.91223 5.43653 1.91223 4.83653V3.08902C1.91223 1.88152 2.82723 0.936523 3.98973 0.936523H13.9947C15.1422 0.936523 16.0722 1.86654 16.0722 3.01404V4.67902C16.0722 5.46652 15.6072 6.35154 15.1572 6.81654L13.8072 8.00902C13.6722 8.12902 13.4847 8.174 13.3047 8.1365C13.1022 8.084 12.8847 8.06152 12.6597 8.06152C11.0022 8.06152 9.65973 9.40402 9.65973 11.0615C9.65973 11.609 9.80973 12.1415 10.0947 12.6065C10.3347 13.004 10.6572 13.334 11.0322 13.5665C11.1972 13.6715 11.3022 13.8515 11.3022 14.0465V14.3015C11.3022 14.894 10.9422 15.7265 10.3422 16.079L9.30723 16.7465C8.96973 16.9565 8.57973 17.0615 8.19723 17.0615ZM3.99723 2.06152C3.46473 2.06152 3.04473 2.51152 3.04473 3.08902V4.83653C3.04473 5.10653 3.26973 5.66153 3.56973 5.96153L6.45723 8.99902C6.83973 9.47152 7.22223 10.274 7.22223 10.979V14.9915C7.22223 15.4865 7.56723 15.734 7.70973 15.8165C8.03223 15.9965 8.41473 15.989 8.70723 15.809L9.75723 15.134C9.95973 15.014 10.1622 14.6315 10.1772 14.3615C9.76473 14.054 9.40473 13.6565 9.13473 13.2065C8.74473 12.569 8.53473 11.834 8.53473 11.084C8.53473 8.81154 10.3872 6.95904 12.6597 6.95904C12.8697 6.95904 13.0797 6.97404 13.2747 7.00404L14.3847 6.02154C14.6397 5.75904 14.9547 5.13653 14.9547 4.69403V3.02901C14.9547 2.50401 14.5272 2.07654 14.0022 2.07654H3.99723V2.06152Z" fill="#7E92A2"/>
</svg>
