<svg width="80" height="80" viewBox="0 0 80 80" fill="none" xmlns="http://www.w3.org/2000/svg">
<rect width="80" height="80" rx="40" fill="url(#paint0_linear_560_4245)"/>
<path d="M36.0001 26.6667C32.5067 26.6667 29.6667 29.5067 29.6667 33.0001C29.6667 36.4267 32.3467 39.2001 35.8401 39.3201C35.9467 39.3067 36.0534 39.3067 36.1334 39.3201C36.1601 39.3201 36.1734 39.3201 36.2001 39.3201C36.2134 39.3201 36.2134 39.3201 36.2267 39.3201C39.6401 39.2001 42.3201 36.4267 42.3334 33.0001C42.3334 29.5067 39.4934 26.6667 36.0001 26.6667Z" fill="#2DC8A8"/>
<path d="M42.7734 42.8667C39.0534 40.3867 32.9867 40.3867 29.2401 42.8667C27.5467 44.0001 26.6134 45.5334 26.6134 47.1734C26.6134 48.8134 27.5467 50.3334 29.2267 51.4534C31.0934 52.7067 33.5467 53.3334 36.0001 53.3334C38.4534 53.3334 40.9067 52.7067 42.7734 51.4534C44.4534 50.3201 45.3867 48.8001 45.3867 47.1467C45.3734 45.5068 44.4534 43.9867 42.7734 42.8667Z" fill="#2DC8A8"/>
<path d="M50.6534 33.7867C50.8667 36.3734 49.0267 38.6401 46.4801 38.9467C46.4667 38.9467 46.4667 38.9467 46.4534 38.9467H46.4134C46.3334 38.9467 46.2534 38.9467 46.1867 38.9734C44.8934 39.0401 43.7067 38.6267 42.8134 37.8667C44.1867 36.6401 44.9734 34.8001 44.8134 32.8001C44.7201 31.7201 44.3467 30.7334 43.7867 29.8934C44.2934 29.6401 44.8801 29.4801 45.4801 29.4267C48.0934 29.2001 50.4267 31.1467 50.6534 33.7867Z" fill="#2DC8A8"/>
<path d="M53.3201 46.1201C53.2134 47.4134 52.3867 48.5334 51.0001 49.2934C49.6667 50.0267 47.9867 50.3734 46.3201 50.3334C47.2801 49.4667 47.8401 48.3867 47.9467 47.2401C48.0801 45.5867 47.2934 44.0001 45.7201 42.7334C44.8267 42.0267 43.7867 41.4667 42.6534 41.0534C45.6001 40.2001 49.3067 40.7734 51.5867 42.6134C52.8134 43.6001 53.4401 44.8401 53.3201 46.1201Z" fill="#2DC8A8"/>
<defs>
<linearGradient id="paint0_linear_560_4245" x1="40" y1="0" x2="40" y2="80" gradientUnits="userSpaceOnUse">
<stop stop-color="#2DC8A8"/>
<stop offset="0.625" stop-color="#EBF2FC" stop-opacity="0.0865385"/>
<stop offset="1" stop-color="white" stop-opacity="0"/>
</linearGradient>
</defs>
</svg>
