<svg width="80" height="80" viewBox="0 0 80 80" fill="none" xmlns="http://www.w3.org/2000/svg">
<rect width="80" height="80" rx="40" fill="url(#paint0_linear_560_4239)"/>
<path d="M36.0001 26.6666C32.5067 26.6666 29.6667 29.5066 29.6667 33C29.6667 36.4266 32.3467 39.2 35.8401 39.32C35.9467 39.3066 36.0534 39.3066 36.1334 39.32C36.1601 39.32 36.1734 39.32 36.2001 39.32C36.2134 39.32 36.2134 39.32 36.2267 39.32C39.6401 39.2 42.3201 36.4266 42.3334 33C42.3334 29.5066 39.4934 26.6666 36.0001 26.6666Z" fill="#1570EF"/>
<path d="M42.7734 42.8666C39.0534 40.3866 32.9867 40.3866 29.2401 42.8666C27.5467 44 26.6134 45.5333 26.6134 47.1733C26.6134 48.8133 27.5467 50.3333 29.2267 51.4533C31.0934 52.7066 33.5467 53.3333 36.0001 53.3333C38.4534 53.3333 40.9067 52.7066 42.7734 51.4533C44.4534 50.32 45.3867 48.8 45.3867 47.1466C45.3734 45.5066 44.4534 43.9866 42.7734 42.8666Z" fill="#1570EF"/>
<path d="M50.6534 33.7866C50.8667 36.3733 49.0267 38.64 46.4801 38.9466C46.4667 38.9466 46.4667 38.9466 46.4534 38.9466H46.4134C46.3334 38.9466 46.2534 38.9466 46.1867 38.9733C44.8934 39.04 43.7067 38.6266 42.8134 37.8666C44.1867 36.64 44.9734 34.8 44.8134 32.8C44.7201 31.72 44.3467 30.7333 43.7867 29.8933C44.2934 29.64 44.8801 29.48 45.4801 29.4266C48.0934 29.2 50.4267 31.1466 50.6534 33.7866Z" fill="#1570EF"/>
<path d="M53.3201 46.12C53.2134 47.4133 52.3867 48.5333 51.0001 49.2933C49.6667 50.0266 47.9867 50.3733 46.3201 50.3333C47.2801 49.4666 47.8401 48.3866 47.9467 47.24C48.0801 45.5866 47.2934 44 45.7201 42.7333C44.8267 42.0266 43.7867 41.4666 42.6534 41.0533C45.6001 40.2 49.3067 40.7733 51.5867 42.6133C52.8134 43.6 53.4401 44.84 53.3201 46.12Z" fill="#1570EF"/>
<defs>
<linearGradient id="paint0_linear_560_4239" x1="40" y1="0" x2="40" y2="80" gradientUnits="userSpaceOnUse">
<stop stop-color="#1366D9"/>
<stop offset="0.625" stop-color="#EBF2FC" stop-opacity="0.0865385"/>
<stop offset="1" stop-color="white" stop-opacity="0"/>
</linearGradient>
</defs>
</svg>
