<svg width="21" height="25" viewBox="0 0 21 25" fill="none" xmlns="http://www.w3.org/2000/svg">
<path d="M17.7083 8.775V7.29165C17.7083 3.2646 14.4438 0 10.4167 0C6.38955 0 3.125 3.2646 3.125 7.29165V8.775C1.2292 9.60239 0.00273438 11.4732 0 13.5417V19.7917C0.00341797 22.6667 2.33325 24.9966 5.2083 25H15.625C18.5 24.9966 20.8298 22.6667 20.8333 19.7917V13.5417C20.8306 11.4732 19.6041 9.60239 17.7083 8.775ZM11.4583 17.7083C11.4583 18.2836 10.9919 18.75 10.4167 18.75C9.84136 18.75 9.375 18.2836 9.375 17.7083V15.625C9.375 15.0497 9.84136 14.5833 10.4167 14.5833C10.9919 14.5833 11.4583 15.0497 11.4583 15.625V17.7083ZM15.625 8.33335H5.2083V7.2917C5.2083 4.41523 7.54014 2.08335 10.4167 2.08335C13.2932 2.08335 15.625 4.41519 15.625 7.2917V8.33335Z" fill="#1A8EEA"/>
</svg>
