<svg width="327" height="256" viewBox="0 0 327 256" fill="none" xmlns="http://www.w3.org/2000/svg">
<g clip-path="url(#clip0_497_4695)">
<path d="M80.7129 233.593L81.3781 246.977L81.3781 246.978C81.4903 249.24 80.6567 251.452 79.0606 253.128C77.4646 254.803 75.2369 255.805 72.8674 255.912L72.5771 255.925L71.4882 234.01L80.7129 233.593Z" fill="#2F2E41"/>
<path d="M280.034 210.973C273.357 223.414 264.887 235.445 254.172 246.335C253.934 246.581 253.693 246.82 253.451 247.064L228.062 235.589C228.217 235.343 228.388 235.066 228.571 234.764C239.477 216.948 305.311 108.273 303.231 83.6593C303.473 85.6893 311.276 152.824 280.034 210.973Z" fill="#007922"/>
<path d="M259.07 248.549C258.714 248.742 258.35 248.93 257.983 249.113L238.937 240.504C239.203 240.324 239.514 240.111 239.87 239.871C245.705 235.871 263.056 223.87 280.034 210.973C298.279 197.113 316.096 182.221 318.742 175.113C318.205 176.743 301.505 226.291 259.07 248.549Z" fill="#007922"/>
<path d="M31.6822 255.391C47.9156 255.391 61.0754 242.827 61.0754 227.328C61.0754 211.829 47.9156 199.265 31.6822 199.265C15.4487 199.265 2.28891 211.829 2.28891 227.328C2.28891 242.827 15.4487 255.391 31.6822 255.391Z" fill="#C1926E"/>
<path d="M43.4561 215.551H19.9082C18.8677 215.553 17.8701 215.948 17.1343 216.65C16.3986 217.353 15.9847 218.305 15.9835 219.299V235.357C15.9847 236.351 16.3986 237.303 17.1343 238.005C17.8701 238.708 18.8677 239.103 19.9082 239.104H43.4562C44.4967 239.103 45.4943 238.708 46.23 238.006C46.9658 237.303 47.3797 236.351 47.3808 235.357V219.299C47.3797 218.305 46.9658 217.353 46.23 216.65C45.4942 215.948 44.4967 215.553 43.4561 215.551ZM43.4561 217.693C43.5967 217.693 43.7367 217.711 43.8727 217.745L31.6849 227.027L19.5683 217.726C19.6802 217.704 19.794 217.693 19.9082 217.693H43.4561ZM43.4561 236.963H19.9082C19.4623 236.963 19.0347 236.793 18.7194 236.492C18.4041 236.191 18.2267 235.783 18.2262 235.357V219.443L30.9796 229.233C31.1782 229.385 31.4252 229.469 31.68 229.469C31.9349 229.469 32.1822 229.387 32.3814 229.235L45.1382 219.52V235.357C45.1377 235.783 44.9603 236.191 44.6449 236.492C44.3296 236.793 43.9021 236.963 43.4561 236.963Z" fill="white"/>
<path d="M145.118 186.812L151.694 186.864C152.36 186.869 153.019 186.736 153.624 186.473C154.23 186.21 154.769 185.824 155.203 185.342C155.636 184.86 155.955 184.294 156.136 183.682C156.316 183.071 156.355 182.429 156.25 181.802C156.136 181.127 155.858 180.487 155.438 179.933C155.018 179.379 154.467 178.927 153.831 178.613C153.194 178.3 152.49 178.133 151.773 178.127C151.057 178.121 150.349 178.275 149.707 178.578L143.505 181.5L122.292 186.016L113.204 177.145L107.983 185.354L120.247 194.4L145.118 186.812Z" fill="#FFB8B8"/>
<path d="M143.885 251.686L136.136 253.109C130.844 237.18 125.109 222.096 125.109 210.429C117.619 218.388 108.331 222.941 97.3932 224.371L98.5853 206.73L107.526 202.177L121.21 196.147C122.408 195.619 123.7 195.314 125.018 195.248C127.58 195.119 130.101 195.9 132.096 197.439C134.091 198.979 135.419 201.169 135.824 203.587L143.885 251.686Z" fill="#2F2E41"/>
<path d="M106.781 222.237L103.693 224.478C102.365 225.441 100.796 226.057 99.1419 226.262C97.4879 226.468 95.8063 226.258 94.264 225.651C85.4183 219.321 79.134 221.188 73.4383 230.743C66.6065 223.382 64.921 212.75 71.0181 201.75L104.844 202.462L111.698 200.47L106.781 222.237Z" fill="#2F2E41"/>
<path d="M95.5158 255.203C93.5776 255.773 91.4913 255.673 89.6225 254.921C87.7537 254.169 86.2215 252.814 85.2944 251.092C82.2545 248.536 79.6896 244.876 77.465 240.425C75.8689 237.16 74.4983 233.799 73.362 230.363C71.8227 225.824 74.3966 220.865 79.1873 219.507C79.3298 219.467 79.474 219.429 79.6199 219.393C86.0152 217.825 92.5828 221.347 94.7689 227.295L101.126 244.592C101.501 245.614 101.662 246.696 101.6 247.777C101.537 248.859 101.252 249.918 100.761 250.894C100.269 251.87 99.5816 252.744 98.7365 253.466C97.8914 254.188 96.9056 254.745 95.8354 255.103C95.7296 255.139 95.6231 255.172 95.5158 255.203Z" fill="#2F2E41"/>
<path opacity="0.2" d="M76.3826 238.455C76.3826 238.455 83.8332 246.422 85.3233 250.975L76.3826 238.455Z" fill="black"/>
<path d="M47.4863 200.856L44.9927 206.667C44.7404 207.255 44.6254 207.888 44.6559 208.523C44.6863 209.157 44.8614 209.778 45.1689 210.342C45.4764 210.905 45.909 211.398 46.4364 211.785C46.9638 212.173 47.5734 212.446 48.2227 212.585C48.9215 212.735 49.6474 212.726 50.342 212.56C51.0367 212.393 51.6806 212.073 52.2221 211.625C52.7635 211.178 53.1874 210.615 53.4595 209.983C53.7316 209.35 53.8443 208.665 53.7887 207.984L53.2514 201.4L56.7403 180.919L68.7432 176.159L62.7001 168.482L49.3473 175.992L47.4863 200.856Z" fill="#FFB8B8"/>
<path d="M107.079 201.75C98.5161 215.483 81.4456 220.8 66.8248 210.047C69.3967 201.979 77.7005 179.68 72.3361 178.827C60.9462 183.387 60.9296 172.68 58.7992 167.321L84.7272 158.216L98.7344 161.915L101.606 162.888C103.474 163.521 105.095 164.685 106.25 166.224C107.405 167.763 108.038 169.602 108.066 171.495C102.182 179.611 97.826 188.268 107.079 201.75Z" fill="#FF5B59"/>
<path d="M110.357 190.653L100.075 182.544L103.503 163.622L117.51 177.849L110.357 190.653Z" fill="#DF1E1C"/>
<path d="M280.964 60.6669H279.495V22.2399C279.495 16.3415 277.041 10.6847 272.672 6.51392C268.304 2.34313 262.379 0 256.201 0H170.928C164.75 0 158.825 2.34313 154.457 6.51392C150.088 10.6847 147.634 16.3415 147.634 22.2399V233.054C147.634 238.952 150.088 244.609 154.457 248.78C158.825 252.951 164.75 255.294 170.928 255.294H256.2C262.378 255.294 268.303 252.951 272.672 248.78C277.04 244.609 279.494 238.952 279.494 233.054V88.0199H280.964L280.964 60.6669Z" fill="#3F3D56"/>
<path d="M257.14 5.78553H246.01C246.522 6.98377 246.717 8.28389 246.579 9.57132C246.441 10.8588 245.973 12.094 245.217 13.1681C244.461 14.2423 243.44 15.1224 242.244 15.731C241.047 16.3395 239.713 16.6578 238.357 16.6578H189.506C188.151 16.6577 186.816 16.3394 185.62 15.7309C184.424 15.1223 183.403 14.2423 182.647 13.1683C181.891 12.0943 181.423 10.8592 181.285 9.57198C181.146 8.28472 181.342 6.98475 181.854 5.78658H171.456C166.842 5.78658 162.417 7.53646 159.155 10.6513C155.892 13.7661 154.059 17.9907 154.059 22.3956V232.899C154.059 237.304 155.892 241.529 159.155 244.644C162.417 247.758 166.842 249.508 171.456 249.508H257.137C261.751 249.508 266.176 247.758 269.438 244.644C272.701 241.529 274.534 237.304 274.534 232.899V22.3946C274.534 17.9896 272.701 13.765 269.438 10.6502C266.176 7.5354 261.751 5.78551 257.137 5.78551L257.14 5.78553Z" fill="white"/>
<path d="M214.445 237.745C219.721 237.745 223.998 233.661 223.998 228.624C223.998 223.587 219.721 219.504 214.445 219.504C209.169 219.504 204.893 223.587 204.893 228.624C204.893 233.661 209.169 237.745 214.445 237.745Z" fill="#E6E6E6"/>
<path d="M175.692 144.278C174.789 144.278 174.054 145.079 174.054 146.063C174.054 147.047 174.789 147.848 175.692 147.848H252.901C253.804 147.848 254.539 147.047 254.539 146.063C254.539 145.079 253.804 144.278 252.901 144.278H175.692Z" fill="#E6E6E6"/>
<path d="M175.692 186.373C174.789 186.373 174.054 187.173 174.054 188.157C174.054 189.141 174.789 189.942 175.692 189.942H252.901C253.804 189.942 254.539 189.141 254.539 188.157C254.539 187.173 253.804 186.373 252.901 186.373H175.692Z" fill="#E6E6E6"/>
<path d="M175.692 154.987C174.789 154.987 174.054 155.787 174.054 156.771C174.054 157.756 174.789 158.556 175.692 158.556H208.915C209.818 158.556 210.553 157.756 210.553 156.771C210.553 155.787 209.818 154.987 208.915 154.987H175.692Z" fill="#E6E6E6"/>
<path d="M175.692 165.194C174.789 165.194 174.054 165.995 174.054 166.979C174.054 167.963 174.789 168.764 175.692 168.764H252.901C253.804 168.764 254.539 167.963 254.539 166.979C254.539 165.995 253.804 165.194 252.901 165.194H175.692Z" fill="#E6E6E6"/>
<path d="M175.692 175.903C174.789 175.903 174.054 176.703 174.054 177.687C174.054 178.671 174.789 179.472 175.692 179.472H208.915C209.818 179.472 210.553 178.671 210.553 177.687C210.553 176.703 209.818 175.903 208.915 175.903H175.692Z" fill="#E6E6E6"/>
<path d="M190.267 63.0109H238.33C238.861 63.0115 239.37 63.2131 239.746 63.5716C240.121 63.93 240.332 64.416 240.333 64.9229V112.713C240.332 113.22 240.121 113.706 239.746 114.064C239.37 114.423 238.861 114.624 238.33 114.625H190.267C189.736 114.624 189.227 114.423 188.852 114.064C188.477 113.706 188.265 113.22 188.265 112.713V64.9229C188.265 64.416 188.477 63.93 188.852 63.5716C189.227 63.2131 189.736 63.0115 190.267 63.0109Z" fill="#FEC091"/>
<path d="M228.089 104.77C228.268 104.77 228.445 104.737 228.61 104.672C228.775 104.607 228.926 104.511 229.052 104.391C229.179 104.27 229.279 104.127 229.348 103.97C229.416 103.812 229.451 103.643 229.451 103.472C229.452 103.302 229.416 103.133 229.348 102.975C229.28 102.817 229.179 102.674 229.053 102.554C228.927 102.433 228.776 102.337 228.611 102.272C228.446 102.207 228.269 102.174 228.09 102.174H200.509C200.33 102.173 200.153 102.207 199.988 102.272C199.822 102.337 199.672 102.432 199.546 102.553C199.419 102.673 199.319 102.816 199.25 102.974C199.182 103.132 199.146 103.3 199.146 103.471C199.146 103.642 199.181 103.811 199.25 103.968C199.318 104.126 199.418 104.269 199.545 104.39C199.671 104.511 199.821 104.606 199.986 104.671C200.152 104.737 200.329 104.77 200.507 104.77H228.089Z" fill="white"/>
<path d="M228.089 97.1219C228.45 97.1219 228.796 96.9851 229.051 96.7417C229.305 96.4983 229.449 96.1681 229.449 95.8238C229.449 95.4796 229.305 95.1494 229.051 94.906C228.796 94.6625 228.45 94.5258 228.089 94.5258H200.509C200.148 94.5256 199.802 94.6622 199.547 94.9055C199.292 95.1488 199.149 95.4789 199.148 95.8232C199.148 96.1675 199.291 96.4977 199.546 96.7412C199.801 96.9848 200.147 97.1217 200.507 97.1219H228.089Z" fill="white"/>
<path d="M214.299 72.8661C215.991 72.8661 217.646 73.3453 219.053 74.2431C220.461 75.1409 221.558 76.417 222.205 77.91C222.853 79.403 223.023 81.0459 222.692 82.6308C222.362 84.2158 221.547 85.6717 220.35 86.8144C219.153 87.9571 217.629 88.7353 215.968 89.0505C214.308 89.3658 212.588 89.204 211.024 88.5856C209.46 87.9672 208.123 86.9199 207.183 85.5762C206.243 84.2326 205.741 82.6528 205.741 81.0368C205.743 78.8706 206.646 76.7937 208.25 75.2619C209.855 73.7302 212.03 72.8685 214.299 72.8661Z" fill="white"/>
<path d="M105.104 155.739H79.6977C79.1751 155.738 78.674 155.54 78.3045 155.187C77.9349 154.834 77.7271 154.356 77.7265 153.857V143.401C77.7265 139.686 79.2726 136.122 82.0246 133.495C84.7766 130.867 88.5091 129.391 92.4011 129.391C96.293 129.391 100.026 130.867 102.778 133.495C105.53 136.122 107.076 139.686 107.076 143.401V153.857C107.075 154.356 106.867 154.834 106.498 155.187C106.128 155.54 105.627 155.738 105.104 155.739Z" fill="#2F2E41"/>
<path d="M104.647 149.764C107.497 144.786 105.581 138.545 100.367 135.824C95.1529 133.103 88.6158 134.932 85.7657 139.91C82.9156 144.888 84.8317 151.129 90.0455 153.85C95.2593 156.572 101.796 154.742 104.647 149.764Z" fill="#FFB6B6"/>
<path d="M110.547 144.447H95.0117L94.8523 142.318L94.0558 144.447H91.6637L91.348 140.226L89.7693 144.447H85.1406V144.238C85.144 141.3 86.3681 138.483 88.5443 136.405C90.7205 134.327 93.6711 133.158 96.7487 133.155H98.939C102.017 133.158 104.967 134.327 107.143 136.405C109.32 138.483 110.544 141.3 110.547 144.238V144.447Z" fill="#2F2E41"/>
<path d="M94.8846 157.691C94.7676 157.691 94.6509 157.681 94.5357 157.661L83.1599 155.745V137.795H95.6825L95.3725 138.14C91.0589 142.943 94.3087 150.731 96.6297 154.946C96.8008 155.255 96.8771 155.603 96.8498 155.952C96.8225 156.3 96.6927 156.634 96.4754 156.915C96.2934 157.155 96.0543 157.351 95.7778 157.486C95.5012 157.62 95.1951 157.691 94.8846 157.691Z" fill="#2F2E41"/>
<path d="M132.759 246.314L146.795 246.314H146.795C149.167 246.314 151.442 247.213 153.12 248.815C154.797 250.416 155.739 252.588 155.739 254.853V255.13L132.76 255.131L132.759 246.314Z" fill="#2F2E41"/>
<path d="M326.633 256H0.367416C0.269971 256 0.176517 255.963 0.107613 255.897C0.0387095 255.832 0 255.742 0 255.649C0 255.556 0.0387095 255.467 0.107613 255.401C0.176517 255.335 0.269971 255.298 0.367416 255.298H326.633C326.73 255.298 326.823 255.335 326.892 255.401C326.961 255.467 327 255.556 327 255.649C327 255.742 326.961 255.832 326.892 255.897C326.823 255.963 326.73 256 326.633 256Z" fill="black"/>
</g>
<defs>
<clipPath id="clip0_497_4695">
<rect width="327" height="256" fill="white"/>
</clipPath>
</defs>
</svg>
