<svg width="21" height="21" viewBox="0 0 21 21" fill="none" xmlns="http://www.w3.org/2000/svg">
<path d="M7.36479 10.1022C7.33556 10.1022 7.31608 10.1022 7.28685 10.1022C7.23815 10.0925 7.16995 10.0925 7.1115 10.1022C4.28638 10.0146 2.15293 7.79343 2.15293 5.05599C2.15293 2.26984 4.42277 0 7.20892 0C9.99507 0 12.2649 2.26984 12.2649 5.05599C12.2552 7.79343 10.112 10.0146 7.39401 10.1022C7.38427 10.1022 7.37453 10.1022 7.36479 10.1022ZM7.20892 1.46127C5.23134 1.46127 3.6142 3.0784 3.6142 5.05599C3.6142 7.00434 5.13392 8.57277 7.07253 8.64096C7.13099 8.63122 7.25763 8.63122 7.38427 8.64096C9.29366 8.55329 10.7939 6.98486 10.8036 5.05599C10.8036 3.0784 9.1865 1.46127 7.20892 1.46127Z" fill="#5D6679"/>
<path d="M14.5542 10.2289C14.525 10.2289 14.4958 10.2289 14.4665 10.2191C14.0671 10.2581 13.658 9.97559 13.619 9.57617C13.58 9.17676 13.8236 8.81631 14.223 8.76761C14.3399 8.75786 14.4665 8.75786 14.5737 8.75786C15.996 8.67993 17.1066 7.51092 17.1066 6.07887C17.1066 4.59812 15.9083 3.39988 14.4276 3.39988C14.0282 3.40962 13.6969 3.0784 13.6969 2.67899C13.6969 2.27958 14.0282 1.94836 14.4276 1.94836C16.7072 1.94836 18.5678 3.80904 18.5678 6.08862C18.5678 8.32923 16.8143 10.1412 14.5834 10.2289C14.5737 10.2289 14.564 10.2289 14.5542 10.2289Z" fill="#5D6679"/>
<path d="M7.37453 20.75C5.46514 20.75 3.54601 20.2629 2.09448 19.2887C0.740376 18.3925 0 17.165 0 15.8304C0 14.4958 0.740376 13.2586 2.09448 12.3526C5.01702 10.414 9.75153 10.414 12.6546 12.3526C13.9989 13.2488 14.7491 14.4763 14.7491 15.8109C14.7491 17.1455 14.0087 18.3827 12.6546 19.2887C11.1933 20.2629 9.28392 20.75 7.37453 20.75ZM2.90305 13.58C1.96784 14.2035 1.46127 15.0023 1.46127 15.8401C1.46127 16.6682 1.97758 17.467 2.90305 18.0808C5.32876 19.7076 9.42031 19.7076 11.846 18.0808C12.7812 17.4573 13.2878 16.6585 13.2878 15.8207C13.2878 14.9926 12.7715 14.1938 11.846 13.58C9.42031 11.9629 5.32876 11.9629 2.90305 13.58Z" fill="#5D6679"/>
<path d="M16.3077 18.9965C15.9668 18.9965 15.6648 18.7627 15.5966 18.412C15.5187 18.0126 15.7719 17.6326 16.1616 17.545C16.7754 17.4183 17.3404 17.1748 17.7788 16.8338C18.334 16.4149 18.636 15.8889 18.636 15.3336C18.636 14.7783 18.334 14.2522 17.7885 13.8431C17.3599 13.5119 16.8241 13.2781 16.1908 13.1319C15.8012 13.0442 15.5479 12.6546 15.6356 12.2552C15.7232 11.8655 16.1129 11.6122 16.5123 11.6999C17.3501 11.885 18.0808 12.2162 18.675 12.6741C19.581 13.356 20.0973 14.3204 20.0973 15.3336C20.0973 16.3467 19.5712 17.3111 18.6653 18.0028C18.0613 18.4704 17.3014 18.8114 16.4636 18.977C16.4052 18.9965 16.3565 18.9965 16.3077 18.9965Z" fill="#5D6679"/>
</svg>
