<svg width="31" height="30" viewBox="0 0 31 30" fill="none" xmlns="http://www.w3.org/2000/svg">
<g opacity="0.5">
<rect x="0.5" width="30" height="30" rx="4" fill="#51CC5D"/>
<path d="M9.70777 20.0114C9.70048 18.6225 9.99606 17.2487 10.5945 15.89C11.1929 14.5313 12.0448 13.2935 13.15 12.1765C14.2553 11.0596 15.4841 10.1948 16.8365 9.58215C18.1888 8.96949 19.5595 8.65952 20.9483 8.65223C21.1483 8.65118 21.3153 8.71697 21.4494 8.84961C21.5834 8.98224 21.6509 9.14855 21.652 9.34855L21.6662 12.0485C21.667 12.2041 21.6149 12.3432 21.51 12.466C21.4051 12.5888 21.2805 12.6617 21.1362 12.6846L18.8051 13.1302C18.6275 13.1534 18.4774 13.1486 18.355 13.1159C18.2326 13.0832 18.1268 13.0227 18.0374 12.9342L16.3956 11.3262C15.9857 11.5505 15.5899 11.8165 15.2081 12.1241C14.8264 12.4316 14.4587 12.7697 14.1051 13.1382C13.7625 13.4844 13.4449 13.8472 13.1525 14.2265C12.86 14.6059 12.5927 15.0073 12.3504 15.4308L13.9253 16.9892C14.0258 17.0887 14.1015 17.2188 14.1524 17.3797C14.2032 17.5405 14.2179 17.6988 14.1965 17.8545L13.7419 20.1569C13.6983 20.3127 13.6184 20.4409 13.5023 20.5415C13.3861 20.6421 13.2558 20.6928 13.1114 20.6935L10.4114 20.7077C10.2114 20.7087 10.0444 20.6429 9.91039 20.5103C9.77636 20.3777 9.70882 20.2114 9.70777 20.0114ZM17.659 10.6862L18.7647 11.7804L20.3299 11.4888L20.3221 10.0055C19.8668 10.0635 19.4172 10.1436 18.9733 10.246C18.5294 10.3483 18.0913 10.495 17.659 10.6862ZM11.7237 16.6841C11.5371 17.1184 11.3894 17.5608 11.2806 18.0114C11.1719 18.462 11.102 18.9151 11.0711 19.3709L12.5377 19.3632L12.8462 17.7949L11.7237 16.6841Z" fill="white"/>
</g>
</svg>
