<svg width="18" height="18" viewBox="0 0 18 18" fill="none" xmlns="http://www.w3.org/2000/svg">
<path d="M17.7546 16.5684L13.446 12.2604C13.2272 12.0416 12.918 11.9722 12.6387 12.0459L11.7143 11.1215C12.7572 9.94035 13.396 8.39401 13.396 6.69797C13.396 3.00484 10.3915 0 6.69841 0C3.00477 0 0 3.00484 0 6.69857C0 10.392 3.00477 13.3965 6.69841 13.3965C8.39419 13.3965 9.94042 12.7579 11.1219 11.7148L12.0463 12.6392C11.9726 12.9186 12.0416 13.2275 12.2607 13.4466L16.5686 17.7543C16.7327 17.9184 16.9468 18 17.1616 18C17.3763 18 17.5907 17.9181 17.7545 17.7543C18.0818 17.4269 18.0818 16.896 17.7545 16.5684L17.7546 16.5684ZM0.838715 6.69829C0.838715 3.46759 3.46704 0.838681 6.69819 0.838681C9.92934 0.838681 12.5574 3.46759 12.5574 6.69859C12.5574 9.92929 9.92874 12.5579 6.69819 12.5579C3.46764 12.5579 0.838715 9.92921 0.838715 6.69829Z" fill="#858D9D"/>
</svg>
